<svg width="64" height="19" viewBox="0 0 64 19" fill="none" xmlns="http://www.w3.org/2000/svg">
<path d="M3.377 7.4391C2.30132 11.4494 11.5496 13.9198 7.3653 12.9066C3.18095 11.8933 0.0837497 8.84293 1.15943 4.83268C2.23512 0.82243 10.4752 0.372315 14.6596 1.38552C18.8439 2.39869 4.45268 3.42873 3.377 7.4391Z" fill="url(#paint0_linear_14_32)"/>
<path d="M10.5531 10.8039L8.90332 5.99338H9.43542L10.9783 10.5222H10.7135L12.306 5.99338H12.7809L14.353 10.5222H14.101L15.6591 5.99338H16.1556L14.507 10.8039H13.9622L12.4601 6.50878H12.5988L11.0903 10.8039H10.5531ZM17.5635 8.1443H20.149V8.57735H17.5635V8.1443ZM17.6195 10.3641H20.5614V10.8039H17.1027V5.99338H20.4558V6.43316H17.6195V10.3641ZM21.7759 10.8039V5.99338H23.6064C24.0202 5.99338 24.3766 6.05987 24.6745 6.19272C24.9736 6.321 25.2015 6.50878 25.3593 6.7562C25.5223 6.99906 25.6038 7.29457 25.6038 7.64273C25.6038 7.98176 25.5223 8.27499 25.3593 8.52228C25.2015 8.76514 24.9736 8.95305 24.6745 9.0859C24.3766 9.21874 24.0202 9.2851 23.6064 9.2851H22.0623L22.2927 9.04466V10.8039H21.7759ZM22.2927 9.0859L22.0623 8.83847H23.5924C24.0813 8.83847 24.4517 8.73545 24.7025 8.52926C24.9596 8.31851 25.0869 8.023 25.0869 7.64273C25.0869 7.2579 24.9596 6.9601 24.7025 6.74935C24.4517 6.5386 24.0813 6.43316 23.5924 6.43316H22.0623L22.2927 6.19272V9.0859ZM26.7215 10.8039V5.99338H28.552C28.967 5.99338 29.3235 6.05987 29.6214 6.19272C29.9192 6.321 30.1471 6.50878 30.3062 6.7562C30.4692 6.99906 30.5506 7.29457 30.5506 7.64273C30.5506 7.98176 30.4692 8.27499 30.3062 8.52228C30.1471 8.76514 29.9192 8.95305 29.6214 9.0859C29.3235 9.21417 28.967 9.27825 28.552 9.27825H27.0079L27.2383 9.04466V10.8039H26.7215ZM30.0605 10.8039L28.8041 9.05836H29.3629L30.627 10.8039H30.0605ZM27.2383 9.0859L27.0079 8.84533H28.538C29.0269 8.84533 29.3973 8.74001 29.6494 8.52926C29.9052 8.31851 30.0325 8.023 30.0325 7.64273C30.0325 7.2579 29.9052 6.9601 29.6494 6.74935C29.3973 6.5386 29.0269 6.43316 28.538 6.43316H27.0079L27.2383 6.19272V9.0859ZM33.9075 10.8451C33.5396 10.8451 33.1972 10.7856 32.8815 10.6665C32.5683 10.5428 32.2959 10.371 32.0642 10.1511C31.8351 9.92662 31.6556 9.66765 31.5258 9.37455C31.3997 9.07676 31.3374 8.75143 31.3374 8.3987C31.3374 8.04584 31.3997 7.72292 31.5258 7.4297C31.6556 7.1319 31.8351 6.87306 32.0642 6.65317C32.2959 6.42859 32.5683 6.25679 32.8815 6.13765C33.1934 6.01394 33.5358 5.95215 33.9075 5.95215C34.2754 5.95215 34.6153 6.01394 34.9272 6.13765C35.2404 6.25679 35.5102 6.42631 35.7381 6.6462C35.9711 6.86621 36.1506 7.12505 36.2766 7.42285C36.4064 7.72051 36.4713 8.04584 36.4713 8.3987C36.4713 8.75143 36.4064 9.07676 36.2766 9.37455C36.1506 9.67235 35.9711 9.93119 35.7381 10.1511C35.5102 10.371 35.2404 10.5428 34.9272 10.6665C34.6153 10.7856 34.2754 10.8451 33.9075 10.8451ZM33.9075 10.3915C34.2016 10.3915 34.4715 10.3434 34.7184 10.2473C34.9692 10.1465 35.1856 10.0067 35.3677 9.82803C35.5535 9.64481 35.6986 9.43406 35.8005 9.19578C35.9036 8.95305 35.9545 8.68723 35.9545 8.3987C35.9545 8.11004 35.9036 7.84663 35.8005 7.60835C35.6986 7.36549 35.5535 7.15474 35.3677 6.97609C35.1856 6.79287 34.9692 6.65317 34.7184 6.55687C34.4715 6.45613 34.2016 6.40575 33.9075 6.40575C33.6147 6.40575 33.3423 6.45613 33.0903 6.55687C32.8395 6.65317 32.6205 6.79287 32.4334 6.97609C32.2526 7.15474 32.1075 7.36549 32.0006 7.60835C31.8987 7.84663 31.8466 8.11004 31.8466 8.3987C31.8466 8.68266 31.8987 8.94607 32.0006 9.18892C32.1075 9.43178 32.2526 9.64481 32.4334 9.82803C32.6205 10.0067 32.8395 10.1465 33.0903 10.2473C33.3423 10.3434 33.6147 10.3915 33.9075 10.3915ZM9.53982 18.1343V13.3238H11.4251C11.947 13.3238 12.4015 13.4291 12.7885 13.6398C13.1742 13.846 13.4747 14.1301 13.6885 14.492C13.9075 14.8494 14.0169 15.2617 14.0169 15.7291C14.0169 16.1964 13.9075 16.6109 13.6885 16.9729C13.4747 17.3302 13.1742 17.6143 12.7885 17.8251C12.4015 18.0312 11.947 18.1343 11.4251 18.1343H9.53982ZM9.77659 17.9212H11.4124C11.891 17.9212 12.3086 17.8273 12.6625 17.6396C13.0215 17.4516 13.2952 17.1928 13.4861 16.8629C13.6822 16.533 13.7802 16.1552 13.7802 15.7291C13.7802 15.3029 13.6822 14.9249 13.4861 14.5951C13.2952 14.2652 13.0215 14.0064 12.6625 13.8185C12.3086 13.6307 11.891 13.5368 11.4124 13.5368H9.77659V17.9212ZM15.5064 15.5847H18.2026V15.7977H15.5064V15.5847ZM15.5484 17.9212H18.615V18.1343H15.3116V13.3238H18.517V13.5368H15.5484V17.9212ZM21.8561 18.1618C21.2603 18.1618 20.7906 17.99 20.4456 17.6464C20.1057 17.3028 19.9351 16.7896 19.9351 16.1069V13.3238H20.1732V16.1001C20.1732 16.7232 20.3196 17.1882 20.6124 17.4952C20.9064 17.7975 21.3214 17.9488 21.8561 17.9488C22.392 17.9488 22.807 17.7975 23.0998 17.4952C23.3938 17.1882 23.5402 16.7232 23.5402 16.1001V13.3238H23.7706V16.1069C23.7706 16.7896 23.5988 17.3028 23.2538 17.6464C22.9139 17.99 22.448 18.1618 21.8561 18.1618ZM26.3434 18.1343V13.5368H24.5484V13.3238H28.37V13.5368H26.5738V18.1343H26.3434ZM30.4297 18.1618C30.072 18.1618 29.7321 18.1 29.41 17.9762C29.0943 17.8479 28.8512 17.6876 28.6844 17.4952L28.8092 17.3302C28.9683 17.5043 29.1911 17.6533 29.48 17.777C29.7741 17.8961 30.0873 17.9556 30.4233 17.9556C30.7632 17.9556 31.0433 17.9098 31.261 17.8182C31.4799 17.7266 31.6416 17.6052 31.7434 17.4539C31.8504 17.2981 31.9038 17.1263 31.9038 16.9385C31.9038 16.7186 31.8478 16.5423 31.7371 16.4093C31.6251 16.2765 31.4761 16.1711 31.289 16.0932C31.1082 16.0153 30.9071 15.9513 30.6894 15.9008C30.4743 15.8504 30.2553 15.7977 30.0325 15.7428C29.8136 15.6832 29.6099 15.6099 29.424 15.5229C29.242 15.4313 29.0956 15.3076 28.9849 15.1518C28.8767 14.9914 28.8232 14.7852 28.8232 14.5332C28.8232 14.3179 28.8817 14.1163 28.9989 13.9285C29.1147 13.7407 29.2967 13.5895 29.5424 13.4749C29.7894 13.3559 30.1064 13.2962 30.4934 13.2962C30.7581 13.2962 31.0191 13.3375 31.275 13.42C31.5359 13.4979 31.7574 13.6032 31.9395 13.7361L31.8351 13.9216C31.639 13.7797 31.4226 13.6742 31.1846 13.6055C30.9478 13.5368 30.7187 13.5024 30.4997 13.5024C30.1738 13.5024 29.9014 13.5505 29.6825 13.6467C29.4686 13.7384 29.3107 13.862 29.2076 14.0178C29.1058 14.1736 29.0536 14.3454 29.0536 14.5332C29.0536 14.7578 29.1096 14.9365 29.2216 15.0693C29.3337 15.2021 29.48 15.3076 29.6621 15.3854C29.8479 15.4633 30.0504 15.5275 30.2693 15.5778C30.4883 15.6282 30.7072 15.6832 30.9262 15.7428C31.1451 15.7977 31.345 15.8711 31.527 15.9627C31.7129 16.0543 31.8606 16.178 31.9675 16.3338C32.0782 16.4849 32.1343 16.6843 32.1343 16.9317C32.1343 17.147 32.0744 17.3486 31.9535 17.5364C31.8364 17.7243 31.6505 17.8754 31.3946 17.99C31.1426 18.1046 30.8218 18.1618 30.4297 18.1618ZM35.4351 18.1618C35.0774 18.1618 34.7439 18.1023 34.4371 17.9832C34.129 17.8594 33.8617 17.6876 33.6338 17.4676C33.4047 17.2477 33.2278 16.9912 33.103 16.698C32.977 16.4002 32.9133 16.0773 32.9133 15.7291C32.9133 15.3808 32.977 15.0602 33.103 14.7669C33.2278 14.4691 33.4047 14.2103 33.6338 13.9903C33.8617 13.7704 34.129 13.6009 34.4371 13.4819C34.7439 13.3582 35.0774 13.2962 35.4351 13.2962C35.7661 13.2962 36.078 13.3489 36.3721 13.4543C36.6648 13.5596 36.9195 13.72 37.1333 13.9353L36.9869 14.0866C36.768 13.8804 36.5274 13.7337 36.2664 13.6467C36.0105 13.5551 35.7356 13.5093 35.4428 13.5093C35.1169 13.5093 34.8139 13.5665 34.5351 13.6811C34.2551 13.7911 34.0106 13.9468 33.8006 14.1484C33.5957 14.35 33.4352 14.586 33.3194 14.8563C33.2074 15.122 33.1514 15.4129 33.1514 15.7291C33.1514 16.0452 33.2074 16.3384 33.3194 16.6086C33.4352 16.8745 33.5957 17.108 33.8006 17.3097C34.0106 17.5112 34.2551 17.6692 34.5351 17.7838C34.8139 17.8937 35.1169 17.9488 35.4428 17.9488C35.7356 17.9488 36.0105 17.9053 36.2664 17.8182C36.5274 17.7266 36.768 17.5754 36.9869 17.3646L37.1333 17.5157C36.9195 17.7312 36.6648 17.8937 36.3721 18.0037C36.078 18.1092 35.7661 18.1618 35.4351 18.1618ZM42.0573 13.3238H42.2953V18.1343H42.0573V13.3238ZM38.6278 18.1343H38.3898V13.3238H38.6278V18.1343ZM42.0993 15.7977H38.5858V15.5847H42.0993V15.7977ZM44.0864 18.1343V13.3238H44.3245V17.9212H47.1875V18.1343H44.0864ZM47.3071 18.1343L49.5705 13.3238H49.8009L52.0643 18.1343H51.8059L49.6329 13.4819H49.7385L47.5655 18.1343H47.3071ZM48.09 16.7255L48.1804 16.5262H51.1694L51.261 16.7255H48.09ZM53.0165 18.1343V13.3238H53.2113L56.8024 17.8594H56.684V13.3238H56.9208V18.1343H56.726L53.1349 13.5986H53.2533V18.1343H53.0165ZM58.7132 18.1343V13.3238H60.5985C61.1204 13.3238 61.5749 13.4291 61.9606 13.6398C62.3476 13.846 62.648 14.1301 62.8619 14.492C63.0808 14.8494 63.1903 15.2617 63.1903 15.7291C63.1903 16.1964 63.0808 16.6109 62.8619 16.9729C62.648 17.3302 62.3476 17.6143 61.9606 17.8251C61.5749 18.0312 61.1204 18.1343 60.5985 18.1343H58.7132ZM58.9499 17.9212H60.5845C61.0644 17.9212 61.4807 17.8273 61.8346 17.6396C62.1935 17.4516 62.4685 17.1928 62.6595 16.8629C62.8555 16.533 62.9535 16.1552 62.9535 15.7291C62.9535 15.3029 62.8555 14.9249 62.6595 14.5951C62.4685 14.2652 62.1935 14.0064 61.8346 13.8185C61.4807 13.6307 61.0644 13.5368 60.5845 13.5368H58.9499V17.9212Z" fill="#1F2B26"/>
<defs>
<linearGradient id="paint0_linear_14_32" x1="10.6827" y1="-0.59396" x2="7.14543" y2="14.0152" gradientUnits="userSpaceOnUse">
<stop stop-color="white"/>
<stop offset="0.0001"/>
<stop offset="0.0002" stop-color="white"/>
<stop offset="0.302083" stop-color="#40614B"/>
<stop offset="1" stop-color="#40614B"/>
</linearGradient>
</defs>
</svg>
