<svg width="10" height="11" viewBox="0 0 10 11" fill="none" xmlns="http://www.w3.org/2000/svg">
<g clip-path="url(#clip0_9_234)">
<path fill-rule="evenodd" clip-rule="evenodd" d="M9.33333 6.31305C8.96533 6.31305 8.66667 6.61172 8.66667 6.97972V8.31305H1.33333V6.97972C1.33333 6.61172 1.03467 6.31305 0.666667 6.31305C0.298667 6.31305 0 6.61172 0 6.97972V9.31305C0 9.47272 0.173667 9.64639 0.333333 9.64639H9.66667C9.868 9.64639 10 9.49372 10 9.31305V6.97972C10 6.61172 9.70133 6.31305 9.33333 6.31305ZM3.66667 3.64639H4.33333V6.64639C4.33333 7.01439 4.632 7.31305 5 7.31305C5.368 7.31305 5.66667 7.01439 5.66667 6.64639V3.64639H6.33333C6.568 3.64639 6.77533 3.67806 6.90633 3.54639C7.03666 3.41539 7.03666 3.20238 6.90633 3.07105L5.25867 1.07406C5.18867 1.00406 5.09633 0.974049 5.00533 0.979049C4.914 0.974049 4.82166 1.00406 4.75199 1.07406L3.10433 3.07105C2.97366 3.20238 2.97366 3.41539 3.10433 3.54639C3.235 3.67806 3.536 3.64639 3.66667 3.64639Z" fill="black"/>
</g>
<defs>
<clipPath id="clip0_9_234">
<rect width="10" height="10" fill="white" transform="translate(0 0.312988)"/>
</clipPath>
</defs>
</svg>
