<svg width="163" height="46" viewBox="0 0 163 46" fill="none" xmlns="http://www.w3.org/2000/svg">
<path d="M6.37031 17.1153C3.55405 27.6509 27.7709 34.1411 16.814 31.4792C5.8572 28.8173 -2.25323 20.8036 0.563079 10.268C3.37938 -0.267689 24.9582 -1.45019 35.9151 1.21166C46.8719 3.87353 9.18663 6.5796 6.37031 17.1153Z" fill="url(#paint0_linear_62_535)"/>
<path d="M25.1647 25.9534L20.8477 13.3153H22.2379L26.2805 25.2132H25.5855L29.7561 13.3153H30.9999L35.1158 25.2132H34.4573L38.5364 13.3153H39.8353L35.5181 25.9534H34.0914L30.1586 14.6693H30.5243L26.5731 25.9534H25.1647ZM43.5244 18.9663H50.2927V20.1038H43.5244V18.9663ZM43.6708 24.7979H51.372V25.9534H42.3172V13.3153H51.0975V14.4708H43.6708V24.7979ZM54.5537 25.9534V13.3153H59.3465C60.4318 13.3153 61.3646 13.4898 62.1451 13.8389C62.9255 14.1759 63.5231 14.6693 63.9378 15.3194C64.3646 15.9573 64.5781 16.7337 64.5781 17.6484C64.5781 18.539 64.3646 19.3094 63.9378 19.9593C63.5231 20.5972 62.9255 21.0908 62.1451 21.4397C61.3646 21.7889 60.4318 21.9633 59.3465 21.9633H55.3037L55.9074 21.3314V25.9534H54.5537ZM55.9074 21.4397L55.3037 20.7898H59.3098C60.5903 20.7898 61.5598 20.519 62.2183 19.9774C62.8891 19.4237 63.2244 18.6473 63.2244 17.6484C63.2244 16.6374 62.8891 15.8549 62.2183 15.3012C61.5598 14.7476 60.5903 14.4708 59.3098 14.4708H55.3037L55.9074 13.8389V21.4397ZM67.505 25.9534V13.3153H72.2977C73.3832 13.3153 74.3158 13.4898 75.0962 13.8389C75.8772 14.1759 76.4746 14.6693 76.889 15.3194C77.3157 15.9573 77.5294 16.7337 77.5294 17.6484C77.5294 18.539 77.3157 19.3094 76.889 19.9593C76.4746 20.5972 75.8772 21.0908 75.0962 21.4397C74.3158 21.7768 73.3832 21.9453 72.2977 21.9453H68.2553L68.8588 21.3314V25.9534H67.505ZM76.2486 25.9534L72.9565 21.3675H74.4196L77.7308 25.9534H76.2486ZM68.8588 21.4397L68.2553 20.8078H72.2608C73.5416 20.8078 74.5111 20.531 75.1699 19.9774C75.8403 19.4237 76.1756 18.6473 76.1756 17.6484C76.1756 16.6374 75.8403 15.8549 75.1699 15.3012C74.5111 14.7476 73.5416 14.4708 72.2608 14.4708H68.2553L68.8588 13.8389V21.4397ZM86.3216 26.0617C85.3582 26.0617 84.4618 25.9053 83.633 25.5923C82.8158 25.2673 82.1023 24.8159 81.4926 24.2382C80.8952 23.6484 80.4255 22.9683 80.0842 22.1981C79.7544 21.4157 79.5899 20.5612 79.5899 19.6343C79.5899 18.7076 79.7544 17.8589 80.0842 17.0887C80.4255 16.3062 80.8952 15.6263 81.4926 15.0486C82.1023 14.4587 82.8158 14.0074 83.633 13.6944C84.4495 13.3695 85.3459 13.207 86.3216 13.207C87.2849 13.207 88.1752 13.3695 88.9924 13.6944C89.8096 14.0074 90.5169 14.4527 91.1143 15.0304C91.724 15.6082 92.1937 16.2882 92.5228 17.0706C92.8641 17.8529 93.0348 18.7076 93.0348 19.6343C93.0348 20.5612 92.8641 21.4157 92.5228 22.1981C92.1937 22.9804 91.724 23.6605 91.1143 24.2382C90.5169 24.8159 89.8096 25.2673 88.9924 25.5923C88.1752 25.9053 87.2849 26.0617 86.3216 26.0617ZM86.3216 24.8701C87.0903 24.8701 87.7976 24.7437 88.4435 24.4909C89.1023 24.2261 89.669 23.8591 90.1448 23.3896C90.6323 22.9082 91.0105 22.3545 91.2788 21.7286C91.5471 21.0908 91.6816 20.3925 91.6816 19.6343C91.6816 18.8761 91.5471 18.184 91.2788 17.5581C91.0105 16.9202 90.6323 16.3665 90.1448 15.8971C89.669 15.4157 89.1023 15.0486 88.4435 14.7958C87.7976 14.531 87.0903 14.3986 86.3216 14.3986C85.5535 14.3986 84.84 14.531 84.1812 14.7958C83.5231 15.0486 82.9496 15.4157 82.4621 15.8971C81.9862 16.3665 81.608 16.9202 81.3281 17.5581C81.0598 18.184 80.9253 18.8761 80.9253 19.6343C80.9253 20.3806 81.0598 21.0726 81.3281 21.7106C81.608 22.3484 81.9862 22.9082 82.4621 23.3896C82.9496 23.8591 83.5231 24.2261 84.1812 24.4909C84.84 24.7437 85.5535 24.8701 86.3216 24.8701ZM22.5121 45.2114V32.5733H27.4512C28.817 32.5733 30.0061 32.8502 31.0184 33.4038C32.0304 33.9455 32.817 34.6917 33.378 35.6426C33.9511 36.5814 34.2378 37.6647 34.2378 38.8924C34.2378 40.1201 33.9511 41.2094 33.378 42.1603C32.817 43.099 32.0304 43.8453 31.0184 44.399C30.0061 44.9406 28.817 45.2114 27.4512 45.2114H22.5121ZM23.1342 44.6518H27.4146C28.6708 44.6518 29.7622 44.405 30.689 43.9116C31.6281 43.418 32.3475 42.7379 32.8476 41.8713C33.3596 41.0048 33.6159 40.0118 33.6159 38.8924C33.6159 37.7729 33.3596 36.78 32.8476 35.9134C32.3475 35.0468 31.6281 34.3667 30.689 33.8733C29.7622 33.3797 28.6708 33.133 27.4146 33.133H23.1342V44.6518ZM38.1371 38.5132H45.198V39.0729H38.1371V38.5132ZM38.2469 44.6518H46.2772V45.2114H37.6248V32.5733H46.0211V33.133H38.2469V44.6518ZM54.7645 45.2837C53.2035 45.2837 51.9719 44.8323 51.0694 43.9296C50.1792 43.0268 49.734 41.6787 49.734 39.8853V32.5733H50.3561V39.8673C50.3561 41.5042 50.7401 42.7259 51.5084 43.5323C52.2766 44.3267 53.362 44.724 54.7645 44.724C56.167 44.724 57.2522 44.3267 58.0205 43.5323C58.7887 42.7259 59.173 41.5042 59.173 39.8673V32.5733H59.7766V39.8853C59.7766 41.6787 59.3255 43.0268 58.4231 43.9296C57.5327 44.8323 56.3132 45.2837 54.7645 45.2837ZM66.5142 45.2114V33.133H61.8128V32.5733H71.8191V33.133H67.1178V45.2114H66.5142ZM77.2154 45.2837C76.2766 45.2837 75.3863 45.1212 74.5445 44.7961C73.7157 44.4592 73.0814 44.0379 72.6425 43.5323L72.9715 43.099C73.3859 43.5564 73.9717 43.9476 74.7275 44.2725C75.4963 44.5855 76.3189 44.742 77.1969 44.742C78.0872 44.742 78.8191 44.6216 79.3919 44.3809C79.9654 44.1402 80.3859 43.8212 80.6542 43.424C80.9348 43.0148 81.0748 42.5634 81.0748 42.07C81.0748 41.4922 80.9287 41.0288 80.6365 40.6797C80.3436 40.3307 79.9531 40.0539 79.4656 39.8493C78.9898 39.6447 78.4654 39.4762 77.8926 39.3437C77.3314 39.2114 76.7579 39.0729 76.1728 38.9284C75.5993 38.772 75.0689 38.5794 74.5814 38.3507C74.1055 38.1101 73.7218 37.7851 73.429 37.3758C73.1484 36.9545 73.0084 36.4129 73.0084 35.7509C73.0084 35.1852 73.1606 34.6556 73.4658 34.1621C73.7703 33.6686 74.2462 33.2714 74.892 32.9705C75.5386 32.6576 76.3681 32.5012 77.3799 32.5012C78.0749 32.5012 78.7583 32.6094 79.4287 32.8261C80.1115 33.0308 80.6911 33.3075 81.1663 33.6567L80.8925 34.1441C80.3798 33.771 79.8131 33.4941 79.1912 33.3136C78.5692 33.1331 77.9718 33.0427 77.3983 33.0427C76.5449 33.0427 75.8315 33.1691 75.258 33.4219C74.6975 33.6626 74.2824 33.9876 74.0141 34.3969C73.7457 34.8061 73.6119 35.2574 73.6119 35.7509C73.6119 36.3407 73.758 36.8101 74.0509 37.1592C74.3431 37.5081 74.7275 37.7851 75.2034 37.9897C75.6908 38.1943 76.2213 38.3628 76.7948 38.4952C77.3676 38.6276 77.9411 38.772 78.5146 38.9284C79.0874 39.0729 79.6117 39.2656 80.0876 39.5062C80.575 39.747 80.9594 40.0719 81.24 40.4812C81.5322 40.8783 81.679 41.402 81.679 42.0519C81.679 42.6176 81.5199 43.1472 81.2032 43.6406C80.898 44.1342 80.4105 44.5313 79.7401 44.8323C79.0812 45.1332 78.2401 45.2837 77.2154 45.2837ZM90.3223 45.2837C89.3836 45.2837 88.5117 45.1272 87.7068 44.8142C86.9019 44.4893 86.2007 44.0379 85.6026 43.4601C85.0053 42.8824 84.5417 42.2083 84.2126 41.438C83.8835 40.6557 83.719 39.8071 83.719 38.8924C83.719 37.9776 83.8835 37.1351 84.2126 36.3648C84.5417 35.5824 85.0053 34.9024 85.6026 34.3246C86.2007 33.7469 86.9019 33.3015 87.7068 32.9886C88.5117 32.6636 89.3836 32.5012 90.3223 32.5012C91.188 32.5012 92.0052 32.6395 92.7733 32.9164C93.5421 33.1932 94.2064 33.6145 94.7676 34.1801L94.3832 34.5773C93.8104 34.0358 93.1823 33.6506 92.4989 33.4219C91.8284 33.1812 91.1088 33.0608 90.3408 33.0608C89.4867 33.0608 88.694 33.2112 87.9628 33.5122C87.2309 33.801 86.5905 34.2103 86.0416 34.7399C85.5057 35.2694 85.0845 35.8894 84.78 36.5994C84.4871 37.2975 84.341 38.0619 84.341 38.8924C84.341 39.7228 84.4871 40.4932 84.78 41.2033C85.0845 41.9015 85.5057 42.5152 86.0416 43.0448C86.5905 43.5744 87.2309 43.9897 87.9628 44.2907C88.694 44.5795 89.4867 44.724 90.3408 44.724C91.1088 44.724 91.8284 44.6096 92.4989 44.3809C93.1823 44.1402 93.8104 43.7429 94.3832 43.1893L94.7676 43.5865C94.2064 44.1522 93.5421 44.5795 92.7733 44.8684C92.0052 45.1452 91.188 45.2837 90.3223 45.2837ZM107.662 32.5733H108.283V45.2114H107.662V32.5733ZM98.6796 45.2114H98.0576V32.5733H98.6796V45.2114ZM107.771 39.0729H98.5703V38.5132H107.771V39.0729ZM112.975 45.2114V32.5733H113.596V44.6518H121.096V45.2114H112.975ZM121.408 45.2114L127.335 32.5733H127.938L133.865 45.2114H133.189L127.499 32.9886H127.774L122.085 45.2114H121.408ZM123.458 41.5102L123.695 40.9867H131.523L131.762 41.5102H123.458ZM136.358 45.2114V32.5733H136.87L146.272 44.4893H145.962V32.5733H146.584V45.2114H146.071L136.669 33.2956H136.98V45.2114H136.358ZM151.274 45.2114V32.5733H156.213C157.578 32.5733 158.768 32.8502 159.78 33.4038C160.792 33.9455 161.578 34.6917 162.139 35.6426C162.712 36.5814 162.999 37.6647 162.999 38.8924C162.999 40.1201 162.712 41.2094 162.139 42.1603C161.578 43.099 160.792 43.8453 159.78 44.399C158.768 44.9406 157.578 45.2114 156.213 45.2114H151.274ZM151.896 44.6518H156.176C157.432 44.6518 158.523 44.405 159.45 43.9116C160.389 43.418 161.109 42.7379 161.608 41.8713C162.122 41.0048 162.378 40.0118 162.378 38.8924C162.378 37.7729 162.122 36.78 161.608 35.9134C161.109 35.0468 160.389 34.3667 159.45 33.8733C158.523 33.3797 157.432 33.133 156.176 33.133H151.896V44.6518Z" fill="#304036"/>
<defs>
<linearGradient id="paint0_linear_62_535" x1="25.5016" y1="-3.98877" x2="16.1808" y2="34.3776" gradientUnits="userSpaceOnUse">
<stop stop-color="white"/>
<stop offset="0.0001"/>
<stop offset="0.0002" stop-color="white"/>
<stop offset="0.302083" stop-color="#5F6C5A"/>
<stop offset="1" stop-color="#184941"/>
</linearGradient>
</defs>
</svg>
