<svg width="8" height="9" viewBox="0 0 8 9" fill="none" xmlns="http://www.w3.org/2000/svg">
<path d="M3.32812 3.94098C3.32812 3.73911 3.40794 3.54549 3.54975 3.40275C3.69169 3.26 3.88417 3.17969 4.08492 3.17969C4.28555 3.17969 4.47803 3.26 4.61996 3.40275C4.7619 3.54549 4.84159 3.73911 4.84159 3.94098C4.84159 4.14298 4.7619 4.3366 4.61996 4.47934C4.47803 4.62209 4.28555 4.70228 4.08492 4.70228C3.88417 4.70228 3.69169 4.62209 3.54975 4.47934C3.40794 4.3366 3.32812 4.14298 3.32812 3.94098Z" fill="white"/>
<path fill-rule="evenodd" clip-rule="evenodd" d="M0.804688 3.93754C0.805069 3.06294 1.15082 2.22424 1.76567 1.60594C2.38066 0.987772 3.21447 0.640498 4.0838 0.640625C5.89438 0.640625 7.36304 2.11703 7.36304 3.93754C7.36304 5.29468 6.68798 6.37013 5.96453 7.09692C5.64475 7.42009 5.2864 7.70202 4.8975 7.93638C4.73507 8.03281 4.58332 8.10894 4.45106 8.1607C4.32643 8.21044 4.19582 8.24901 4.0838 8.24901C3.97178 8.24901 3.84117 8.21044 3.71655 8.1607C3.56226 8.09752 3.41293 8.02253 3.2701 7.93638C2.88133 7.70202 2.52285 7.42009 2.20307 7.09692C1.47963 6.37013 0.804688 5.29468 0.804688 3.93754ZM4.0838 2.66922C3.74938 2.66922 3.42859 2.80296 3.19207 3.04086C2.95555 3.27877 2.82264 3.60155 2.82264 3.93805C2.82264 4.27454 2.95555 4.59734 3.19207 4.83524C3.42859 5.07314 3.74938 5.20687 4.0838 5.20687C4.41834 5.20687 4.73914 5.07314 4.97567 4.83524C5.21219 4.59734 5.34509 4.27454 5.34509 3.93805C5.34509 3.60155 5.21219 3.27877 4.97567 3.04086C4.73914 2.80296 4.41834 2.66922 4.0838 2.66922Z" fill="white"/>
</svg>
