<svg width="91" height="72" viewBox="0 0 91 72" fill="none" xmlns="http://www.w3.org/2000/svg">
<path d="M45.5332 0.0395508H56.7896V71.9606H45.5332V0.0395508Z" fill="#B5B5C3"/>
<path d="M7.45376 72.0001H0V0.0791016H7.45376V72.0001Z" fill="#B5B5C3"/>
<path d="M34.0338 0.065918V71.9869H26.5801V0.065918H34.0338Z" fill="#B5B5C3"/>
<path d="M83.3092 72.0001H75.8555V0.0791016H83.3092V72.0001Z" fill="#B5B5C3"/>
<path d="M11.4023 0.0395508H15.06V71.954H11.4023V0.0395508Z" fill="#B5B5C3"/>
<path d="M22.6252 71.9935H18.9609V0.0725098H22.6252V71.9935Z" fill="#B5B5C3"/>
<path d="M41.5854 71.9935H37.9277V0.0791016H41.5854V71.9935Z" fill="#B5B5C3"/>
<path d="M60.7441 0.032959H64.3952V71.9935H60.7441V0.032959Z" fill="#B5B5C3"/>
<path d="M68.2969 0H71.948V71.9869H68.3035L68.2969 0Z" fill="#B5B5C3"/>
<path d="M87.2578 0H90.9023V71.9671H87.2578V0Z" fill="#B5B5C3"/>
</svg>
