<svg width="58" height="51" viewBox="0 0 58 51" fill="none" xmlns="http://www.w3.org/2000/svg">
<circle cx="6.84162" cy="7.00177" r="6.26349" fill="#2C4570"/>
<path d="M23.1687 11.1255C22.7747 11.1255 22.4199 11.0553 22.1042 10.915C21.7912 10.772 21.543 10.5615 21.3595 10.2836C21.1787 10.0057 21.0884 9.66305 21.0884 9.25563C21.0884 8.90487 21.1531 8.61481 21.2826 8.38547C21.4121 8.15612 21.5889 7.97264 21.8128 7.83504C22.0368 7.69743 22.289 7.59355 22.5697 7.5234C22.853 7.45055 23.1457 7.39793 23.4479 7.36555C23.8122 7.32778 24.1076 7.29405 24.3343 7.26437C24.5609 7.232 24.7255 7.18343 24.828 7.11867C24.9333 7.05122 24.9859 6.94734 24.9859 6.80703V6.78275C24.9859 6.47785 24.8955 6.24176 24.7147 6.07448C24.5339 5.90719 24.2736 5.82355 23.9336 5.82355C23.5747 5.82355 23.2901 5.90179 23.0796 6.05829C22.8719 6.21478 22.7315 6.39961 22.6587 6.61276L21.2907 6.41849C21.3986 6.04075 21.5767 5.72506 21.825 5.47143C22.0732 5.21511 22.3767 5.02354 22.7356 4.89672C23.0945 4.76721 23.4911 4.70245 23.9255 4.70245C24.225 4.70245 24.5231 4.73753 24.8199 4.80768C25.1167 4.87784 25.3879 4.99386 25.6334 5.15575C25.879 5.31494 26.0759 5.53214 26.2243 5.80736C26.3754 6.08257 26.451 6.42659 26.451 6.83941V11H25.0425V10.146H24.994C24.9049 10.3187 24.7795 10.4806 24.6176 10.6317C24.4584 10.7801 24.2574 10.9002 24.0145 10.9919C23.7744 11.0809 23.4924 11.1255 23.1687 11.1255ZM23.5491 10.0489C23.8432 10.0489 24.0982 9.99088 24.314 9.87486C24.5299 9.75614 24.6958 9.59965 24.8118 9.40538C24.9306 9.21111 24.9899 8.9993 24.9899 8.76996V8.0374C24.9441 8.07518 24.8658 8.11025 24.7552 8.14263C24.6473 8.17501 24.5258 8.20334 24.3909 8.22762C24.256 8.25191 24.1225 8.27349 23.9902 8.29238C23.858 8.31127 23.7434 8.32746 23.6462 8.34095C23.4277 8.37063 23.2321 8.41919 23.0594 8.48665C22.8867 8.5541 22.7504 8.64854 22.6506 8.76996C22.5508 8.88868 22.5009 9.04247 22.5009 9.23134C22.5009 9.50116 22.5993 9.70487 22.7963 9.84248C22.9933 9.98009 23.2442 10.0489 23.5491 10.0489ZM29.2598 9.04922L29.2557 7.28056H29.4905L31.7246 4.7834H33.4366L30.6885 7.84313H30.3849L29.2598 9.04922ZM27.9242 11V2.7112H29.3893V11H27.9242ZM31.8258 11L29.8021 8.17096L30.7897 7.13891L33.5782 11H31.8258ZM37.5172 4.7834V5.91663H33.9435V4.7834H37.5172ZM34.8258 3.29401H36.2909V9.13016C36.2909 9.32713 36.3206 9.47823 36.3799 9.58346C36.442 9.68599 36.5229 9.75614 36.6228 9.79391C36.7226 9.83169 36.8332 9.85058 36.9547 9.85058C37.0464 9.85058 37.13 9.84383 37.2056 9.83034C37.2838 9.81685 37.3432 9.80471 37.3837 9.79391L37.6305 10.9393C37.5523 10.9663 37.4403 10.996 37.2946 11.0283C37.1516 11.0607 36.9762 11.0796 36.7685 11.085C36.4015 11.0958 36.071 11.0405 35.7769 10.9191C35.4828 10.7949 35.2494 10.6034 35.0767 10.3443C34.9067 10.0853 34.8231 9.76154 34.8258 9.373V3.29401ZM42.7048 8.38547V4.7834H44.1699V11H42.7493V9.8951H42.6846C42.5443 10.2432 42.3136 10.5278 41.9925 10.7491C41.6741 10.9703 41.2815 11.0809 40.8147 11.0809C40.4073 11.0809 40.0471 10.9906 39.7341 10.8098C39.4238 10.6263 39.181 10.3605 39.0056 10.0125C38.8302 9.6617 38.7425 9.23809 38.7425 8.74163V4.7834H40.2076V8.51498C40.2076 8.90891 40.3156 9.2219 40.5314 9.45394C40.7473 9.68599 41.0306 9.80201 41.3814 9.80201C41.5972 9.80201 41.8063 9.74939 42.0087 9.64417C42.211 9.53894 42.377 9.38244 42.5065 9.17468C42.6387 8.96423 42.7048 8.70115 42.7048 8.38547ZM48.4287 11.1214C47.8054 11.1214 47.2671 10.9919 46.8138 10.7329C46.3632 10.4712 46.0165 10.1015 45.7736 9.62393C45.5308 9.14365 45.4094 8.57839 45.4094 7.92813C45.4094 7.28866 45.5308 6.72744 45.7736 6.24446C46.0192 5.75879 46.3618 5.38105 46.8017 5.11123C47.2415 4.83871 47.7582 4.70245 48.3518 4.70245C48.7349 4.70245 49.0965 4.76451 49.4364 4.88863C49.7791 5.01005 50.0813 5.19892 50.343 5.45525C50.6074 5.71157 50.8152 6.03805 50.9663 6.43468C51.1174 6.82862 51.1929 7.2981 51.1929 7.84313V8.29238H46.0974V7.30485H49.7885C49.7858 7.02424 49.7251 6.77465 49.6064 6.5561C49.4877 6.33485 49.3218 6.16082 49.1086 6.034C48.8981 5.90719 48.6526 5.84378 48.372 5.84378C48.0725 5.84378 47.8094 5.91663 47.5828 6.06234C47.3561 6.20534 47.1794 6.39421 47.0526 6.62895C46.9285 6.861 46.8651 7.11597 46.8624 7.39389V8.25595C46.8624 8.61751 46.9285 8.9278 47.0607 9.18682C47.1929 9.44315 47.3777 9.64012 47.6152 9.77773C47.8526 9.91263 48.1305 9.98009 48.4489 9.98009C48.662 9.98009 48.855 9.95041 49.0276 9.89105C49.2003 9.82899 49.3501 9.7386 49.4769 9.61988C49.6037 9.50116 49.6995 9.35411 49.7643 9.17873L51.1322 9.33253C51.0459 9.69408 50.8813 10.0098 50.6385 10.2796C50.3983 10.5467 50.0907 10.7545 49.7157 10.9029C49.3406 11.0486 48.9116 11.1214 48.4287 11.1214ZM53.8975 2.7112V11H52.4324V2.7112H53.8975ZM56.8692 2.7112V11H55.4041V2.7112H56.8692Z" fill="#A4ABBF"/>
<circle cx="6.84162" cy="43.7947" r="6.26349" fill="#F0F0F0"/>
<path d="M24.0927 47.9144C23.4856 47.9144 22.9594 47.7808 22.5142 47.5137C22.069 47.2466 21.7237 46.8729 21.4781 46.3926C21.2353 45.9123 21.1139 45.3511 21.1139 44.709C21.1139 44.0668 21.2353 43.5042 21.4781 43.0212C21.7237 42.5383 22.069 42.1632 22.5142 41.8961C22.9594 41.629 23.4856 41.4954 24.0927 41.4954C24.6997 41.4954 25.2259 41.629 25.6711 41.8961C26.1163 42.1632 26.4603 42.5383 26.7031 43.0212C26.9487 43.5042 27.0714 44.0668 27.0714 44.709C27.0714 45.3511 26.9487 45.9123 26.7031 46.3926C26.4603 46.8729 26.1163 47.2466 25.6711 47.5137C25.2259 47.7808 24.6997 47.9144 24.0927 47.9144ZM24.1008 46.7407C24.4299 46.7407 24.7051 46.6503 24.9264 46.4695C25.1476 46.286 25.3122 46.0405 25.4202 45.7329C25.5308 45.4253 25.5861 45.0826 25.5861 44.7049C25.5861 44.3245 25.5308 43.9804 25.4202 43.6729C25.3122 43.3626 25.1476 43.1157 24.9264 42.9322C24.7051 42.7487 24.4299 42.657 24.1008 42.657C23.7635 42.657 23.4829 42.7487 23.2589 42.9322C23.0377 43.1157 22.8717 43.3626 22.7611 43.6729C22.6532 43.9804 22.5992 44.3245 22.5992 44.7049C22.5992 45.0826 22.6532 45.4253 22.7611 45.7329C22.8717 46.0405 23.0377 46.286 23.2589 46.4695C23.4829 46.6503 23.7635 46.7407 24.1008 46.7407ZM31.4637 41.5764V42.7096H27.7888V41.5764H31.4637ZM28.7076 47.793V40.9895C28.7076 40.5713 28.7939 40.2232 28.9666 39.9453C29.142 39.6674 29.3767 39.4596 29.6708 39.322C29.9649 39.1844 30.2914 39.1156 30.6502 39.1156C30.9039 39.1156 31.1292 39.1359 31.3261 39.1763C31.5231 39.2168 31.6688 39.2532 31.7632 39.2856L31.4718 40.4188C31.4098 40.4 31.3315 40.3811 31.2371 40.3622C31.1427 40.3406 31.0374 40.3298 30.9214 40.3298C30.6489 40.3298 30.456 40.3959 30.3426 40.5281C30.232 40.6576 30.1767 40.8438 30.1767 41.0866V47.793H28.7076ZM35.7599 41.5764V42.7096H32.085V41.5764H35.7599ZM33.0037 47.793V40.9895C33.0037 40.5713 33.0901 40.2232 33.2628 39.9453C33.4381 39.6674 33.6729 39.4596 33.967 39.322C34.2611 39.1844 34.5876 39.1156 34.9464 39.1156C35.2 39.1156 35.4253 39.1359 35.6223 39.1763C35.8193 39.2168 35.965 39.2532 36.0594 39.2856L35.768 40.4188C35.706 40.4 35.6277 40.3811 35.5333 40.3622C35.4388 40.3406 35.3336 40.3298 35.2176 40.3298C34.9451 40.3298 34.7521 40.3959 34.6388 40.5281C34.5282 40.6576 34.4729 40.8438 34.4729 41.0866V47.793H33.0037ZM39.4257 47.9144C38.8024 47.9144 38.2642 47.7849 37.8109 47.5258C37.3603 47.2641 37.0136 46.8945 36.7707 46.4169C36.5279 45.9366 36.4065 45.3714 36.4065 44.7211C36.4065 44.0816 36.5279 43.5204 36.7707 43.0374C37.0163 42.5518 37.3589 42.174 37.7987 41.9042C38.2385 41.6317 38.7552 41.4954 39.3488 41.4954C39.732 41.4954 40.0935 41.5575 40.4335 41.6816C40.7762 41.803 41.0784 41.9919 41.3401 42.2482C41.6045 42.5045 41.8123 42.831 41.9634 43.2277C42.1145 43.6216 42.19 44.0911 42.19 44.6361V45.0853H37.0945V44.0978H40.7856C40.7829 43.8172 40.7222 43.5676 40.6035 43.3491C40.4848 43.1278 40.3188 42.9538 40.1057 42.827C39.8952 42.7002 39.6497 42.6368 39.3691 42.6368C39.0696 42.6368 38.8065 42.7096 38.5798 42.8553C38.3532 42.9983 38.1765 43.1872 38.0497 43.4219C37.9255 43.654 37.8621 43.9089 37.8594 44.1869V45.0489C37.8594 45.4105 37.9255 45.7208 38.0578 45.9798C38.19 46.2361 38.3748 46.4331 38.6122 46.5707C38.8497 46.7056 39.1276 46.7731 39.446 46.7731C39.6591 46.7731 39.852 46.7434 40.0247 46.684C40.1974 46.622 40.3472 46.5316 40.474 46.4129C40.6008 46.2941 40.6966 46.1471 40.7613 45.9717L42.1293 46.1255C42.043 46.4871 41.8784 46.8027 41.6355 47.0726C41.3954 47.3397 41.0878 47.5474 40.7128 47.6958C40.3377 47.8415 39.9087 47.9144 39.4257 47.9144ZM44.8946 44.1504V47.793H43.4295V41.5764H44.8298V42.6327H44.9027C45.0457 42.2846 45.2737 42.0081 45.5867 41.803C45.9024 41.598 46.2923 41.4954 46.7563 41.4954C47.1853 41.4954 47.559 41.5872 47.8774 41.7706C48.1985 41.9541 48.4467 42.2199 48.6221 42.5679C48.8002 42.916 48.8879 43.3383 48.8852 43.8347V47.793H47.4201V44.0614C47.4201 43.6459 47.3122 43.3207 47.0963 43.086C46.8832 42.8513 46.5877 42.7339 46.21 42.7339C45.9536 42.7339 45.7256 42.7905 45.526 42.9039C45.329 43.0145 45.1739 43.175 45.0605 43.3855C44.9499 43.596 44.8946 43.8509 44.8946 44.1504Z" fill="#A4ABBF"/>
</svg>
