<svg width="75" height="74" viewBox="0 0 75 74" fill="none" xmlns="http://www.w3.org/2000/svg">
<path d="M15.2985 46.2669C15.9121 46.2976 16.7588 46.3099 17.5933 46.4081C18.4251 46.5157 19.2706 46.4263 20.0614 46.147C20.8523 45.8677 21.5665 45.4065 22.1463 44.8004C24.57 42.4565 27.0551 40.1739 29.4604 37.8115C34.6064 32.7677 39.7361 27.7015 44.8494 22.6127C45.0322 22.4223 45.1816 22.2024 45.2912 21.9623C46.1473 20.1813 46.5959 18.2319 46.6043 16.2558C46.6043 11.1813 49.1507 7.72678 53.403 5.32761C58.3118 2.57255 63.2205 2.71368 68.1293 5.19262C68.3673 5.32543 68.576 5.50492 68.7429 5.72031C68.8231 5.80767 68.8843 5.91068 68.9227 6.02285C68.9611 6.13502 68.9759 6.25392 68.9661 6.37208C68.9563 6.49024 68.9221 6.60508 68.8658 6.7094C68.8094 6.81371 68.7321 6.90523 68.6386 6.97819C68.3343 7.22358 68.0004 7.42973 67.6446 7.59179C65.3313 8.67786 63.0119 9.76393 60.6802 10.8255C60.5453 10.8733 60.4297 10.964 60.3511 11.0836C60.2724 11.2032 60.235 11.3453 60.2446 11.4881C60.1587 13.3596 60.036 15.2311 59.9501 17.1026C59.9615 17.1991 59.9931 17.2921 60.0427 17.3756C60.0924 17.4591 60.1591 17.5312 60.2385 17.5873C61.7786 18.5936 63.3064 19.5876 64.9018 20.551C65.0074 20.5964 65.1212 20.6198 65.2362 20.6198C65.3512 20.6198 65.465 20.5964 65.5706 20.551C67.9882 19.4588 70.3996 18.342 72.805 17.2376L73.0627 17.121C73.9647 16.7405 74.7194 17.078 74.8176 18.0536C74.8943 18.8582 74.8446 19.6698 74.6703 20.459C73.8236 24.4044 71.4489 27.2085 67.9514 29.1168C64.9778 30.7043 61.5632 31.2651 58.2381 30.7122C57.1874 30.5893 56.128 30.5585 55.072 30.6202C54.3784 30.6679 53.7309 30.985 53.268 31.5037L39.5111 45.1624C36.4001 48.2304 33.3199 51.3782 30.1966 54.4585C29.5621 55.0382 29.0596 55.7474 28.7229 56.5382C28.3863 57.329 28.2235 58.1829 28.2454 59.042C28.3422 60.6889 28.2079 62.3412 27.8466 63.9508C27.3719 65.7972 26.4879 67.5132 25.2601 68.9715C24.0322 70.4299 22.4919 71.5933 20.7534 72.3756C18.6022 73.4982 16.201 74.0557 13.7753 73.9956C11.3496 73.9355 8.97892 73.2598 6.88604 72.0319C6.64917 71.9435 6.44542 71.784 6.30264 71.5753C6.15986 71.3666 6.08502 71.1189 6.08836 70.8661C6.08836 70.3139 6.51789 70.0255 6.97195 69.8107C9.17477 68.7799 11.3715 67.7367 13.5927 66.7427C13.8227 66.6568 14.0217 66.5039 14.1639 66.3037C14.3061 66.1036 14.385 65.8653 14.3904 65.6198C14.556 63.8956 14.7524 62.1775 14.961 60.4533C15.0026 60.2338 14.9788 60.0069 14.8927 59.8007C14.8065 59.5946 14.6617 59.4183 14.4763 59.2936C13.1448 58.2628 11.8317 57.2074 10.5247 56.1397C10.3777 56.0013 10.1891 55.9153 9.98818 55.8954C9.78728 55.8754 9.58541 55.9225 9.41408 56.0293C6.81242 57.3178 4.20461 58.5818 1.59682 59.852C1.44562 59.9343 1.28994 60.008 1.13049 60.0729C0.621207 60.2754 0.253039 60.1281 0.124183 59.5882C0.0142284 59.1513 -0.0230817 58.6994 0.01374 58.2505C0.217257 56.4335 0.81734 54.6833 1.77158 53.1236C2.72582 51.564 4.01094 50.2329 5.53613 49.2245C8.39655 47.233 11.8138 46.1977 15.2985 46.2669Z" fill="#B5B5C3"/>
<path d="M28.8039 19.6306L35.5965 26.5397L28.3315 33.9581L21.5021 26.9938C21.3364 27.141 21.2015 27.2638 21.0726 27.3926L14.053 33.9336C13.7953 34.179 13.4885 34.3815 13.2185 34.6147C13.0543 34.7872 12.8325 34.8937 12.5952 34.9141C12.3578 34.9344 12.1212 34.8672 11.93 34.7251C10.9482 34.044 9.92963 33.3936 9.01536 32.6205C6.21573 30.274 3.66227 27.6486 1.39448 24.7848C1.00791 24.2939 0.694967 23.7478 0.351351 23.2324C0.182175 23.0142 0.0998436 22.741 0.120241 22.4657C0.140638 22.1903 0.262312 21.9323 0.461795 21.7414C1.60922 20.4405 2.70758 19.1029 3.89183 17.8389C8.94788 12.4638 14.1635 7.24203 19.6184 2.25961C20.3915 1.56011 21.2199 0.921966 22.0237 0.253143C22.1711 0.110749 22.3627 0.0228292 22.5668 0.00386817C22.7709 -0.0150928 22.9754 0.0360359 23.1465 0.148831C23.669 0.426293 24.1713 0.739995 24.6499 1.08764C28.2272 3.84069 31.4306 7.04818 34.1791 10.6291C34.4307 10.9666 34.627 11.3409 34.8479 11.7029C34.9945 11.9064 35.0633 12.1557 35.0419 12.4056C35.0205 12.6555 34.9103 12.8894 34.7313 13.0651C33.7434 14.1941 32.7801 15.3415 31.7799 16.4522C30.7797 17.5628 29.8225 18.5445 28.8039 19.6306Z" fill="#B5B5C3"/>
<path d="M42.377 47.396L49.6727 40.2906L49.6113 40.1433C49.7156 40.2476 49.8322 40.3397 49.9365 40.444C56.5675 47.1445 63.2025 53.8429 69.8416 60.5393C70.0267 60.7074 70.1589 60.9257 70.2221 61.1675C70.2853 61.4094 70.2767 61.6644 70.1975 61.9015C70.0689 62.3665 69.8877 62.8152 69.6575 63.2392C68.6165 65.049 67.1267 66.56 65.3317 67.6264C64.9411 67.8475 64.5302 68.0304 64.1045 68.1725C63.8145 68.2894 63.4947 68.3102 63.1921 68.2318C62.8894 68.1534 62.6199 67.9799 62.4232 67.7369C55.8782 61.0895 49.3331 54.4545 42.7881 47.8317L42.377 47.396Z" fill="#B5B5C3"/>
</svg>
