<svg width="25" height="25" viewBox="0 0 25 25" fill="none" xmlns="http://www.w3.org/2000/svg">
<path d="M19.7266 3.98438H5.72656C4.62199 3.98438 3.72656 4.87981 3.72656 5.98438V19.9844C3.72656 21.0889 4.62199 21.9844 5.72656 21.9844H19.7266C20.8311 21.9844 21.7266 21.0889 21.7266 19.9844V5.98438C21.7266 4.87981 20.8311 3.98438 19.7266 3.98438Z" stroke="black" stroke-width="2" stroke-linecap="round" stroke-linejoin="round"/>
<path d="M9.22656 10.9844C10.055 10.9844 10.7266 10.3128 10.7266 9.48438C10.7266 8.65595 10.055 7.98438 9.22656 7.98438C8.39814 7.98438 7.72656 8.65595 7.72656 9.48438C7.72656 10.3128 8.39814 10.9844 9.22656 10.9844Z" stroke="black" stroke-width="2" stroke-linecap="round" stroke-linejoin="round"/>
<path d="M21.7266 15.9844L16.7266 10.9844L5.72656 21.9844" stroke="black" stroke-width="2" stroke-linecap="round" stroke-linejoin="round"/>
</svg>
