<svg width="39" height="72" viewBox="0 0 39 72" fill="none" xmlns="http://www.w3.org/2000/svg">
<path d="M19.4044 35.4666V52.1272C18.8874 52.1657 18.4418 52.2262 17.9908 52.2317C12.7654 52.2317 7.54007 52.1987 2.3147 52.2592C0.884602 52.2592 0.246558 51.8137 0.373067 50.3506C0.45283 49.5073 0.45283 48.6583 0.373067 47.8149C0.225699 46.0758 0.722946 44.3433 1.77016 42.9471C2.33454 42.0219 2.6386 40.9615 2.65023 39.8779C2.73823 34.812 2.68873 29.7407 2.69423 24.6748C2.69423 22.4747 2.99125 22.1666 5.1254 22.1611C9.13518 22.1611 13.1505 22.1611 17.1602 22.1611C19.0304 22.1611 19.3604 22.5022 19.3604 24.3943C19.3604 25.5549 19.3604 26.7154 19.3604 27.8815C19.3604 29.4546 20.1744 30.0047 21.632 29.3886C22.1057 29.1574 22.5632 28.8946 23.0016 28.6021L27.2919 32.3148C25.2018 34.8285 22.5891 35.6646 19.4044 35.4666Z" fill="#B5B5C3"/>
<path d="M19.3268 60.9992C20.1739 61.3952 21.0154 61.5492 21.3289 62.0002C21.769 62.6713 22.209 63.7823 21.934 64.3599C21.696 64.7679 21.3787 65.1242 21.0009 65.4076C20.623 65.691 20.1922 65.8958 19.7338 66.01C18.5402 66.285 17.2311 66.0815 15.7295 66.0815V71.9999H6.4174V66.0815C5.0148 66.0815 3.77171 66.12 2.52312 66.0815C1.27454 66.043 0.245962 65.4655 0.0369472 64.1069C-0.172067 62.7483 0.515482 61.8517 1.85208 61.3567C2.07028 61.2399 2.25808 61.0735 2.4004 60.871C2.54273 60.6685 2.63562 60.4355 2.67163 60.1906C2.75963 58.359 2.71013 56.5163 2.71013 54.5747H19.3268V60.9992Z" fill="#B5B5C3"/>
<path d="M16.555 6.52896L18.6011 7.78304L17.303 9.20214L16.9675 8.98213V11.8753C17.2556 11.9142 17.5338 12.0076 17.7871 12.1503C18.1116 12.4309 18.6286 12.9479 18.5461 13.1349C18.4474 13.3518 18.3028 13.5448 18.1224 13.7005C17.942 13.8562 17.73 13.971 17.501 14.037C16.6626 14.127 15.8179 14.1454 14.9764 14.092C11.2911 14.092 7.60033 14.1415 3.90958 14.0535C3.21103 14.0535 2.52899 13.5034 1.83594 13.1954L3.48605 11.4298V9.44966L1.83594 7.79954L4.03609 6.51245L4.62463 6.60596C4.2891 5.6709 3.97558 4.72483 3.61256 3.80076C3.24148 3.0377 2.911 2.25555 2.62249 1.4576C2.37497 0.528037 2.97452 0.0275019 3.83808 0.0220015C8.10638 0.0220015 12.3747 -0.0275019 16.643 0.0220015C17.8751 0.0220015 18.0841 0.973568 17.5065 2.01864C16.6925 3.46524 15.6309 4.90084 16.555 6.52896Z" fill="#B5B5C3"/>
<path d="M38.1158 26.0664C36.2126 28.151 34.3865 30.1697 32.5439 32.1773C32.4273 32.34 32.2761 32.4749 32.1013 32.5723C31.9264 32.6698 31.7322 32.7274 31.5325 32.7411C31.3328 32.7548 31.1325 32.7241 30.946 32.6514C30.7596 32.5786 30.5914 32.4656 30.4537 32.3203C27.8576 30.0982 25.2724 27.8613 22.6982 25.6098C21.9061 24.9223 21.9996 24.1467 22.6982 23.4097L28.1601 17.4363L38.1158 26.0664Z" fill="#B5B5C3"/>
<path d="M17.6112 16.468V19.9223C13.3704 19.9223 9.22311 20.0378 5.08682 19.8783C2.94167 19.7957 2.55665 18.9927 2.85367 16.468H17.6112Z" fill="#B5B5C3"/>
</svg>
