<svg width="8" height="7" viewBox="0 0 8 7" fill="none" xmlns="http://www.w3.org/2000/svg">
<path d="M7.25157 2.40245L7.22293 2.28825C7.18474 2.17748 7.13458 2.07115 7.07335 1.97104C6.93358 1.73847 6.73346 1.54776 6.49414 1.4191L4.82333 0.518241C4.60234 0.401129 4.35601 0.339844 4.10574 0.339844C3.85534 0.339844 3.60901 0.401129 3.38802 0.518241L1.71721 1.4191C1.47789 1.54776 1.27777 1.73847 1.138 1.97104C1.07588 2.07014 1.02661 2.17672 0.991601 2.28825V2.33266C0.956084 2.45967 0.937882 2.591 0.9375 2.72283V5.13994C0.938391 5.53937 1.0979 5.92205 1.38114 6.20449C1.66451 6.4868 2.04857 6.64591 2.44918 6.64667H5.7908C5.98926 6.64667 6.18594 6.60772 6.36925 6.53197C6.55269 6.45622 6.71932 6.34532 6.85974 6.20537C7.00015 6.06542 7.11141 5.89933 7.18741 5.71662C7.26341 5.53378 7.30249 5.33788 7.30249 5.13994V2.71965C7.29676 2.61244 7.2797 2.50611 7.25157 2.40245ZM4.62283 3.46509C4.46511 3.55403 4.28688 3.60085 4.10574 3.60085C3.92446 3.60085 3.74624 3.55403 3.58852 3.46509L1.51035 2.26604C1.5199 2.24194 1.53174 2.21847 1.54536 2.19626C1.64147 2.03702 1.77883 1.90659 1.94317 1.81879L3.61398 0.917917C3.76432 0.836332 3.93286 0.793702 4.10408 0.79421C4.27632 0.793829 4.44588 0.836332 4.59737 0.917917L6.26818 1.81879C6.46473 1.92474 6.62118 2.09184 6.71373 2.2946L4.62283 3.46509Z" fill="white"/>
</svg>
