 <svg width="24" height="25" viewBox="0 0 24 25" fill="none" xmlns="http://www.w3.org/2000/svg">
                    <path
                      d="M8.5179 23H15.482M18.9641 8.53333C18.9641 6.80059 18.2304 5.13881 16.9243 3.91357C15.6183 2.68833 13.847 2 12 2C10.153 2 8.38161 2.68833 7.07558 3.91357C5.76956 5.13881 5.03583 6.80059 5.03583 8.53333C5.03583 11.6672 4.25098 13.8807 3.32666 15.401C2.43142 16.8734 1.98381 17.6096 2.00045 17.8009C2.01915 18.0156 2.06133 18.0912 2.23395 18.2193C2.38762 18.3333 3.11794 18.3333 4.57858 18.3333H19.4214C20.882 18.3333 21.6124 18.3333 21.766 18.2193C21.9386 18.0912 21.9809 18.0156 21.9996 17.8009C22.0162 17.6096 21.5685 16.8734 20.6733 15.401C19.749 13.8807 18.9641 11.6672 18.9641 8.53333Z"
                      stroke="black"
                      stroke-width="3"
                      stroke-linecap="round"
                      stroke-linejoin="round"
                    />
                  </svg>