<svg width="6" height="6" viewBox="0 0 6 6" fill="none" xmlns="http://www.w3.org/2000/svg">
<path d="M4.22479 3.8891L4.08132 4.03286C4.08132 4.03286 3.73991 4.37417 2.8082 3.44221C1.87649 2.51026 2.21791 2.16895 2.21791 2.16895L2.30804 2.07823C2.53107 1.85555 2.55219 1.49774 2.35755 1.23636L1.96025 0.702444C1.7194 0.378894 1.25437 0.33613 0.978514 0.612099L0.483448 1.10694C0.346856 1.24398 0.255457 1.42097 0.266532 1.61764C0.29492 2.12099 0.521255 3.20368 1.78369 4.46679C3.12288 5.80604 4.37933 5.85933 4.89298 5.81112C5.05567 5.79589 5.19685 5.71278 5.31065 5.59858L5.75849 5.15069C6.06109 4.84833 5.97605 4.32976 5.5888 4.11812L4.98655 3.78861C4.73246 3.64993 4.42351 3.69053 4.22479 3.8891Z" fill="white"/>
</svg>
