<svg width="12" height="10" viewBox="0 0 12 10" fill="none" xmlns="http://www.w3.org/2000/svg">
<path d="M3.38281 6.29501V2.78125L5.78191 6.29501V2.78125M7.15279 6.29501H8.86651M7.15279 3.83539C7.15279 4.11491 7.24305 4.38302 7.40383 4.5807C7.56448 4.77838 7.78242 4.88953 8.00965 4.88953C8.23688 4.88953 8.45481 4.77838 8.61547 4.5807C8.77625 4.38302 8.86651 4.11491 8.86651 3.83539C8.86651 3.55587 8.77625 3.28776 8.61547 3.09008C8.45481 2.8924 8.23688 2.78125 8.00965 2.78125C7.78242 2.78125 7.56448 2.8924 7.40383 3.09008C7.24305 3.28776 7.15279 3.55587 7.15279 3.83539Z" stroke="white" stroke-width="5.4771" stroke-linecap="round" stroke-linejoin="round"/>
</svg>
