<svg width="67" height="72" viewBox="0 0 67 72" fill="none" xmlns="http://www.w3.org/2000/svg">
<path d="M19.7095 20.4082H48.7546C51.4697 30.8131 54.1488 40.9603 56.8879 51.5211H10.791C10.9409 40.2531 19.4518 31.6522 19.7095 20.4082Z" fill="#B5B5C3"/>
<path d="M33.2672 71.9892C24.2768 71.9892 15.2863 71.9892 6.29592 71.9892C2.06442 71.9892 0.356244 70.2451 0.236372 65.9956C-0.00337283 57.4547 0.955606 56.4957 9.46654 56.5017C26.1488 56.5017 42.829 56.5017 59.5072 56.5017C65.0633 56.5017 66.6996 58.126 66.6456 63.6162C66.6456 64.5152 66.6456 65.4142 66.6097 66.3133C66.4598 70.1612 64.6677 71.9713 60.8318 71.9892C51.6436 72.0132 42.4554 71.9892 33.2672 71.9892Z" fill="#B5B5C3"/>
<path d="M34.6159 0C40.7055 0 46.795 0 52.8845 0C57.7932 0 59.4775 1.75014 59.4775 6.73083C59.4775 7.73176 59.4775 8.7267 59.4775 9.72764C59.3396 13.5516 57.5295 15.4455 53.7176 15.4575C41.143 15.5055 28.5564 15.5055 15.9578 15.4575C11.7143 15.4575 9.96421 13.6594 9.86831 9.46392C9.63456 0.881062 10.4677 0.0239744 19.0745 0.0359617C21.6757 0.0359617 24.271 0.0359617 26.8662 0.0359617C29.4614 0.0359617 32.0207 0 34.6159 0Z" fill="#B5B5C3"/>
</svg>
