<svg width="78" height="74" viewBox="0 0 78 74" fill="none" xmlns="http://www.w3.org/2000/svg">
<path fill-rule="evenodd" clip-rule="evenodd" d="M49.9768 34.2999C52.9869 36.0262 55.5413 38.4465 57.4273 41.3592H60.7898V64.2027H57.1938C53.5853 69.8805 47.2641 74 38.8989 74C30.5337 74 24.1746 69.8994 20.5471 64.2027H16.762V41.3592H20.4904C22.5815 38.2866 25.3985 35.7773 28.6915 34.0539C30.5841 33.0193 31.7702 31.726 31.7828 30.5652C31.7828 29.0953 30.193 27.8462 28.4644 27.8462H27.6065C26.6057 27.8363 25.6486 27.4344 24.9408 26.7267C24.2331 26.0189 23.8312 25.0619 23.8213 24.061C23.8312 23.0602 24.2331 22.1032 24.9408 21.3954C25.6486 20.6877 26.6057 20.2857 27.6065 20.2759H32.5019L36.3502 15.5003C36.3502 15.3236 36.3502 15.1407 36.3502 14.9514V8.6428H20.7364C19.5913 8.63947 18.4941 8.18311 17.6844 7.37341C16.8747 6.56371 16.4183 5.46648 16.415 4.3214C16.4183 3.17632 16.8747 2.07908 17.6844 1.26939C18.4941 0.459686 19.5913 0.00332875 20.7364 0H57.4399C58.585 0.00332875 59.6822 0.459686 60.4919 1.26939C61.3016 2.07908 61.7579 3.17632 61.7613 4.3214C61.7579 5.46648 61.3016 6.56371 60.4919 7.37341C59.6822 8.18311 58.585 8.63947 57.4399 8.6428H42.5894V14.9514C42.5877 15.2064 42.5729 15.4612 42.5453 15.7147L46.0024 20.2759H50.2102C51.211 20.2857 52.1681 20.6877 52.8758 21.3954C53.5836 22.1032 53.9855 23.0602 53.9954 24.061C53.9776 25.0594 53.5731 26.0118 52.867 26.7178C52.161 27.4239 51.2085 27.8284 50.2102 27.8462C47.3272 27.9093 46.2673 29.1458 46.425 30.5841C46.6521 33.2401 48.4943 33.4167 50.002 34.2999H49.9768ZM63.9441 41.3592H66.5937V35.9023C66.5954 35.4349 66.7822 34.9872 67.1133 34.6573C67.4444 34.3274 67.8927 34.1422 68.3601 34.1422H75.779C76.2453 34.1439 76.692 34.3298 77.0218 34.6596C77.3515 34.9893 77.5374 35.436 77.5391 35.9023V69.6597C77.5374 70.126 77.3515 70.5727 77.0218 70.9024C76.692 71.2321 76.2453 71.4181 75.779 71.4198H68.3601C67.8938 71.4181 67.4471 71.2321 67.1173 70.9024C66.7876 70.5727 66.6017 70.126 66.6 69.6597V64.2027H63.9441V41.3592ZM13.6834 64.2027H10.9517V69.6597C10.9501 70.126 10.7641 70.5727 10.4344 70.9024C10.1047 71.2321 9.65795 71.4181 9.19165 71.4198H1.76009C1.29379 71.4181 0.847073 71.2321 0.517349 70.9024C0.187626 70.5727 0.00166239 70.126 0 69.6597V35.9023C0.00166239 35.436 0.187626 34.9893 0.517349 34.6596C0.847073 34.3298 1.29379 34.1439 1.76009 34.1422H9.17902C9.41099 34.1414 9.64084 34.1862 9.85547 34.2742C10.0701 34.3622 10.2653 34.4917 10.4299 34.6551C10.5945 34.8185 10.7253 35.0128 10.8149 35.2268C10.9044 35.4408 10.9509 35.6703 10.9517 35.9023V41.3592H13.6834V64.2027Z" fill="#B5B5C3"/>
</svg>
