<svg width="10" height="11" viewBox="0 0 10 11" fill="none" xmlns="http://www.w3.org/2000/svg">
<g clip-path="url(#clip0_2079_1837)">
<path fill-rule="evenodd" clip-rule="evenodd" d="M9.33333 6.3111C8.96533 6.3111 8.66667 6.60977 8.66667 6.97777V8.3111H1.33333V6.97777C1.33333 6.60977 1.03467 6.3111 0.666667 6.3111C0.298667 6.3111 0 6.60977 0 6.97777V9.3111C0 9.47077 0.173667 9.64443 0.333333 9.64443H9.66667C9.868 9.64443 10 9.49177 10 9.3111V6.97777C10 6.60977 9.70133 6.3111 9.33333 6.3111ZM3.66667 3.64443H4.33333V6.64443C4.33333 7.01243 4.632 7.3111 5 7.3111C5.368 7.3111 5.66667 7.01243 5.66667 6.64443V3.64443H6.33333C6.568 3.64443 6.77533 3.6761 6.90633 3.54444C7.03666 3.41344 7.03666 3.20043 6.90633 3.0691L5.25867 1.07211C5.18867 1.00211 5.09633 0.972096 5.00533 0.977096C4.914 0.972096 4.82166 1.00211 4.75199 1.07211L3.10433 3.0691C2.97366 3.20043 2.97366 3.41344 3.10433 3.54444C3.235 3.6761 3.536 3.64443 3.66667 3.64443Z" fill="black"/>
</g>
<defs>
<clipPath id="clip0_2079_1837">
<rect width="10" height="10" fill="white" transform="translate(0 0.3125)"/>
</clipPath>
</defs>
</svg>
